<?xml version="1.0" encoding="utf-8" standalone="no"?>
<!DOCTYPE svg PUBLIC "-//W3C//DTD SVG 1.1//EN"
  "http://www.w3.org/Graphics/SVG/1.1/DTD/svg11.dtd">
<svg xmlns:xlink="http://www.w3.org/1999/xlink" width="532.8pt" height="489.6pt" viewBox="0 0 532.8 489.6" xmlns="http://www.w3.org/2000/svg" version="1.1">
 <metadata>
  <rdf:RDF xmlns:dc="http://purl.org/dc/elements/1.1/" xmlns:cc="http://creativecommons.org/ns#" xmlns:rdf="http://www.w3.org/1999/02/22-rdf-syntax-ns#">
   <cc:Work>
    <dc:type rdf:resource="http://purl.org/dc/dcmitype/StillImage"/>
    <dc:date>2026-10-07T07:43:17.145835</dc:date>
    <dc:format>image/svg+xml</dc:format>
    <dc:creator>
     <cc:Agent>
      <dc:title>Matplotlib v3.7.5, https://matplotlib.org/</dc:title>
     </cc:Agent>
    </dc:creator>
   </cc:Work>
  </rdf:RDF>
 </metadata>
 <defs>
  <style type="text/css">*{stroke-linejoin: round; stroke-linecap: butt}</style>
 </defs>
 <g id="figure_1">
  <g id="patch_1">
   <path d="M 0 489.6 
L 532.8 489.6 
L 532.8 0 
L 0 0 
z
" style="fill: #ffffff"/>
  </g>
  <g id="axes_1">
   <g id="patch_2">
    <path d="M 50.616 166.192 
L 196.971556 166.192 
L 196.971556 58.752 
L 50.616 58.752 
z
" style="fill: #ffffff"/>
   </g>
   <g id="matplotlib.axis_1">
    <g id="xtick_1">
     <g id="line2d_1">
      <defs>
       <path id="ma9c631b0f5" d="M 0 0 
L 0 3.5 
" style="stroke: #000000; stroke-width: 0.8"/>
      </defs>
      <g>
       <use xlink:href="#ma9c631b0f5" x="53.485717" y="166.192" style="stroke: #000000; stroke-width: 0.8"/>
      </g>
     </g>
    </g>
    <g id="xtick_2">
     <g id="line2d_2">
      <g>
       <use xlink:href="#ma9c631b0f5" x="122.358919" y="166.192" style="stroke: #000000; stroke-width: 0.8"/>
      </g>
     </g>
    </g>
    <g id="xtick_3">
     <g id="line2d_3">
      <g>
       <use xlink:href="#ma9c631b0f5" x="194.101839" y="166.192" style="stroke: #000000; stroke-width: 0.8"/>
      </g>
     </g>
    </g>
   </g>
   <g id="matplotlib.axis_2">
    <g id="ytick_1">
     <g id="line2d_4">
      <path d="M 50.616 163.324414 
L 196.971556 163.324414 
" clip-path="url(#p26f4cdbfc2)" style="fill: none; stroke: #b0b0b0; stroke-opacity: 0.3; stroke-width: 0.4; stroke-linecap: square"/>
     </g>
     <g id="line2d_5">
      <defs>
       <path id="mc3e713aa82" d="M 0 0 
L -3.5 0 
" style="stroke: #000000; stroke-width: 0.8"/>
      </defs>
      <g>
       <use xlink:href="#mc3e713aa82" x="50.616" y="163.324414" style="stroke: #000000; stroke-width: 0.8"/>
      </g>
     </g>
     <g id="text_1">
      <text style="font: 8px 'DejaVu Serif'; text-anchor: end" x="43.616" y="166.363789" transform="rotate(-0 43.616 166.363789)">74</text>
     </g>
    </g>
    <g id="ytick_2">
     <g id="line2d_6">
      <path d="M 50.616 127.600111 
L 196.971556 127.600111 
" clip-path="url(#p26f4cdbfc2)" style="fill: none; stroke: #b0b0b0; stroke-opacity: 0.3; stroke-width: 0.4; stroke-linecap: square"/>
     </g>
     <g id="line2d_7">
      <g>
       <use xlink:href="#mc3e713aa82" x="50.616" y="127.600111" style="stroke: #000000; stroke-width: 0.8"/>
      </g>
     </g>
     <g id="text_2">
      <text style="font: 8px 'DejaVu Serif'; text-anchor: end" x="43.616" y="130.639486" transform="rotate(-0 43.616 130.639486)">76</text>
     </g>
    </g>
    <g id="ytick_3">
     <g id="line2d_8">
      <path d="M 50.616 91.875807 
L 196.971556 91.875807 
" clip-path="url(#p26f4cdbfc2)" style="fill: none; stroke: #b0b0b0; stroke-opacity: 0.3; stroke-width: 0.4; stroke-linecap: square"/>
     </g>
     <g id="line2d_9">
      <g>
       <use xlink:href="#mc3e713aa82" x="50.616" y="91.875807" style="stroke: #000000; stroke-width: 0.8"/>
      </g>
     </g>
     <g id="text_3">
      <text style="font: 8px 'DejaVu Serif'; text-anchor: end" x="43.616" y="94.915182" transform="rotate(-0 43.616 94.915182)">78</text>
     </g>
    </g>
    <g id="text_4">
     <text style="font: 9px 'DejaVu Serif'; text-anchor: middle" x="27.564281" y="112.472" transform="rotate(-90 27.564281 112.472)">mAP (%)</text>
    </g>
   </g>
   <g id="line2d_10">
    <path d="M 53.485717 133.441197 
L 56.355434 131.917983 
L 59.22515 131.768372 
L 62.094867 131.503882 
L 64.964584 130.77179 
L 67.834301 131.640919 
L 70.704017 129.816071 
L 73.573734 132.035058 
L 76.443451 130.923528 
L 79.313168 131.66458 
L 82.182885 129.875934 
L 85.052601 131.02939 
L 87.922318 130.298696 
L 90.792035 131.022326 
L 93.661752 130.124621 
L 96.531468 130.862831 
L 99.401185 129.621376 
L 102.270902 129.376465 
L 105.140619 129.028768 
L 108.010336 130.813944 
L 110.880052 130.649479 
L 113.749769 129.932221 
L 116.619486 132.20817 
L 119.489203 130.469843 
L 122.358919 130.100667 
L 125.228636 127.029719 
L 128.098353 127.754658 
L 130.96807 130.585413 
L 133.837786 127.805263 
L 136.707503 133.631355 
L 139.57722 126.497723 
L 142.446937 128.295415 
L 145.316654 130.612738 
L 148.18637 132.056427 
L 151.056087 132.289318 
L 153.925804 132.247657 
L 156.795521 134.119662 
L 159.665237 133.991184 
L 162.534954 131.152714 
L 165.404671 131.396438 
L 168.274388 131.800615 
L 171.144105 131.516204 
L 174.013821 130.985372 
L 176.883538 130.387954 
L 179.753255 131.850913 
L 182.622972 134.357715 
L 185.492688 134.435182 
L 188.362405 134.555971 
L 191.232122 134.556473 
L 194.101839 134.54857 
" clip-path="url(#p26f4cdbfc2)" style="fill: none; stroke-dasharray: 5.18,2.24; stroke-dashoffset: 0; stroke: #d55e00; stroke-width: 1.4"/>
   </g>
   <g id="line2d_11">
    <path d="M 53.485717 133.173654 
L 56.355434 129.933269 
L 59.22515 126.75777 
L 62.094867 122.955986 
L 64.964584 125.471854 
L 67.834301 121.287194 
L 70.704017 117.334936 
L 73.573734 123.387266 
L 76.443451 109.355543 
L 79.313168 104.978233 
L 82.182885 99.682909 
L 85.052601 103.600275 
L 87.922318 96.824785 
L 90.792035 97.467044 
L 93.661752 100.291036 
L 96.531468 89.648268 
L 99.401185 89.759812 
L 102.270902 93.108113 
L 105.140619 88.119205 
L 108.010336 97.162987 
L 110.880052 87.671049 
L 113.749769 91.805087 
L 116.619486 85.16646 
L 119.489203 78.611793 
L 122.358919 75.824797 
L 125.228636 80.086157 
L 128.098353 75.128194 
L 130.96807 77.60011 
L 133.837786 66.741295 
L 136.707503 63.635636 
L 139.57722 83.270495 
L 142.446937 64.207907 
L 145.316654 71.010042 
L 148.18637 77.993045 
L 151.056087 80.350514 
L 153.925804 80.05647 
L 156.795521 91.915414 
L 159.665237 77.738167 
L 162.534954 70.181501 
L 165.404671 73.705552 
L 168.274388 77.118515 
L 171.144105 76.412905 
L 174.013821 74.45739 
L 176.883538 70.853097 
L 179.753255 72.394691 
L 182.622972 71.207045 
L 185.492688 71.503972 
L 188.362405 71.381686 
L 191.232122 71.71711 
L 194.101839 71.762063 
" clip-path="url(#p26f4cdbfc2)" style="fill: none; stroke: #0072b2; stroke-width: 1.4; stroke-linecap: square"/>
   </g>
   <g id="line2d_12">
    <path d="M 50.616 133.412902 
L 196.971556 133.412902 
" clip-path="url(#p26f4cdbfc2)" style="fill: none; stroke-dasharray: 0.8,1.32; stroke-dashoffset: 0; stroke: #777777; stroke-width: 0.8"/>
   </g>
   <g id="patch_3">
    <path d="M 50.616 166.192 
L 50.616 58.752 
" style="fill: none; stroke: #000000; stroke-width: 0.8; stroke-linejoin: miter; stroke-linecap: square"/>
   </g>
   <g id="patch_4">
    <path d="M 50.616 166.192 
L 196.971556 166.192 
" style="fill: none; stroke: #000000; stroke-width: 0.8; stroke-linejoin: miter; stroke-linecap: square"/>
   </g>
   <g id="PathCollection_1">
    <defs>
     <path id="mfab3d63f3f" d="M 0 2.12132 
C 0.562581 2.12132 1.102195 1.897805 1.5 1.5 
C 1.897805 1.102195 2.12132 0.562581 2.12132 0 
C 2.12132 -0.562581 1.897805 -1.102195 1.5 -1.5 
C 1.102195 -1.897805 0.562581 -2.12132 0 -2.12132 
C -0.562581 -2.12132 -1.102195 -1.897805 -1.5 -1.5 
C -1.897805 -1.102195 -2.12132 -0.562581 -2.12132 0 
C -2.12132 0.562581 -1.897805 1.102195 -1.5 1.5 
C -1.102195 1.897805 -0.562581 2.12132 0 2.12132 
z
" style="stroke: #d55e00"/>
    </defs>
    <g clip-path="url(#p26f4cdbfc2)">
     <use xlink:href="#mfab3d63f3f" x="139.57722" y="126.497723" style="fill: #d55e00; stroke: #d55e00"/>
    </g>
   </g>
   <g id="PathCollection_2">
    <path d="M 191.756631 136.893778 
L 196.447047 136.893778 
L 196.447047 132.203362 
L 191.756631 132.203362 
L 191.756631 136.893778 
z
" clip-path="url(#p26f4cdbfc2)" style="fill: none; stroke: #d55e00"/>
   </g>
   <g id="PathCollection_3">
    <defs>
     <path id="m393fccbbc7" d="M 0 2.12132 
C 0.562581 2.12132 1.102195 1.897805 1.5 1.5 
C 1.897805 1.102195 2.12132 0.562581 2.12132 0 
C 2.12132 -0.562581 1.897805 -1.102195 1.5 -1.5 
C 1.102195 -1.897805 0.562581 -2.12132 0 -2.12132 
C -0.562581 -2.12132 -1.102195 -1.897805 -1.5 -1.5 
C -1.897805 -1.102195 -2.12132 -0.562581 -2.12132 0 
C -2.12132 0.562581 -1.897805 1.102195 -1.5 1.5 
C -1.102195 1.897805 -0.562581 2.12132 0 2.12132 
z
" style="stroke: #0072b2"/>
    </defs>
    <g clip-path="url(#p26f4cdbfc2)">
     <use xlink:href="#m393fccbbc7" x="136.707503" y="63.635636" style="fill: #0072b2; stroke: #0072b2"/>
    </g>
   </g>
   <g id="PathCollection_4">
    <path d="M 191.756631 74.107271 
L 196.447047 74.107271 
L 196.447047 69.416855 
L 191.756631 69.416855 
L 191.756631 74.107271 
z
" clip-path="url(#p26f4cdbfc2)" style="fill: none; stroke: #0072b2"/>
   </g>
  </g>
  <g id="axes_2">
   <g id="patch_5">
    <path d="M 214.534222 166.192 
L 360.889778 166.192 
L 360.889778 58.752 
L 214.534222 58.752 
z
" style="fill: #ffffff"/>
   </g>
   <g id="matplotlib.axis_3">
    <g id="xtick_4">
     <g id="line2d_13">
      <g>
       <use xlink:href="#ma9c631b0f5" x="217.403939" y="166.192" style="stroke: #000000; stroke-width: 0.8"/>
      </g>
     </g>
    </g>
    <g id="xtick_5">
     <g id="line2d_14">
      <g>
       <use xlink:href="#ma9c631b0f5" x="286.277142" y="166.192" style="stroke: #000000; stroke-width: 0.8"/>
      </g>
     </g>
    </g>
    <g id="xtick_6">
     <g id="line2d_15">
      <g>
       <use xlink:href="#ma9c631b0f5" x="358.020061" y="166.192" style="stroke: #000000; stroke-width: 0.8"/>
      </g>
     </g>
    </g>
   </g>
   <g id="matplotlib.axis_4">
    <g id="ytick_4">
     <g id="line2d_16">
      <path d="M 214.534222 163.324414 
L 360.889778 163.324414 
" clip-path="url(#p525db483ce)" style="fill: none; stroke: #b0b0b0; stroke-opacity: 0.3; stroke-width: 0.4; stroke-linecap: square"/>
     </g>
     <g id="line2d_17">
      <g>
       <use xlink:href="#mc3e713aa82" x="214.534222" y="163.324414" style="stroke: #000000; stroke-width: 0.8"/>
      </g>
     </g>
    </g>
    <g id="ytick_5">
     <g id="line2d_18">
      <path d="M 214.534222 127.600111 
L 360.889778 127.600111 
" clip-path="url(#p525db483ce)" style="fill: none; stroke: #b0b0b0; stroke-opacity: 0.3; stroke-width: 0.4; stroke-linecap: square"/>
     </g>
     <g id="line2d_19">
      <g>
       <use xlink:href="#mc3e713aa82" x="214.534222" y="127.600111" style="stroke: #000000; stroke-width: 0.8"/>
      </g>
     </g>
    </g>
    <g id="ytick_6">
     <g id="line2d_20">
      <path d="M 214.534222 91.875807 
L 360.889778 91.875807 
" clip-path="url(#p525db483ce)" style="fill: none; stroke: #b0b0b0; stroke-opacity: 0.3; stroke-width: 0.4; stroke-linecap: square"/>
     </g>
     <g id="line2d_21">
      <g>
       <use xlink:href="#mc3e713aa82" x="214.534222" y="91.875807" style="stroke: #000000; stroke-width: 0.8"/>
      </g>
     </g>
    </g>
   </g>
   <g id="line2d_22">
    <path d="M 217.403939 133.438027 
L 220.273656 132.661496 
L 223.143373 133.75151 
L 226.013089 133.17226 
L 228.882806 133.498451 
L 231.752523 134.080979 
L 234.62224 133.609892 
L 237.491956 134.9652 
L 240.361673 135.404595 
L 243.23139 133.677949 
L 246.101107 133.740704 
L 248.970824 134.993328 
L 251.84054 135.3454 
L 254.710257 132.365627 
L 257.579974 133.670959 
L 260.449691 133.057221 
L 263.319407 131.780271 
L 266.189124 127.846283 
L 269.058841 132.57801 
L 271.928558 133.102272 
L 274.798275 132.469669 
L 277.667991 132.420877 
L 280.537708 132.12473 
L 283.407425 133.697835 
L 286.277142 133.813812 
L 289.146858 144.387691 
L 292.016575 144.46716 
L 294.886292 139.544824 
L 297.756009 137.435858 
L 300.625725 141.537606 
L 303.495442 139.693428 
L 306.365159 139.409823 
L 309.234876 142.819219 
L 312.104593 141.574361 
L 314.974309 141.916025 
L 317.844026 138.766883 
L 320.713743 141.778109 
L 323.58346 144.037057 
L 326.453176 142.42908 
L 329.322893 138.171972 
L 332.19261 140.041248 
L 335.062327 139.892708 
L 337.932044 141.875445 
L 340.80176 142.995513 
L 343.671477 145.800445 
L 346.541194 144.443398 
L 349.410911 144.008959 
L 352.280627 144.101677 
L 355.150344 144.173632 
L 358.020061 144.149757 
" clip-path="url(#p525db483ce)" style="fill: none; stroke-dasharray: 5.18,2.24; stroke-dashoffset: 0; stroke: #d55e00; stroke-width: 1.4"/>
   </g>
   <g id="line2d_23">
    <path d="M 217.403939 133.309776 
L 220.273656 131.958632 
L 223.143373 130.114752 
L 226.013089 129.979654 
L 228.882806 128.666539 
L 231.752523 126.647231 
L 234.62224 128.386542 
L 237.491956 126.873791 
L 240.361673 126.0312 
L 243.23139 119.261915 
L 246.101107 122.400206 
L 248.970824 120.078913 
L 251.84054 114.502119 
L 254.710257 120.619631 
L 257.579974 118.679955 
L 260.449691 106.482824 
L 263.319407 117.734799 
L 266.189124 118.068156 
L 269.058841 120.621707 
L 271.928558 125.86667 
L 274.798275 117.290975 
L 277.667991 120.458619 
L 280.537708 121.012378 
L 283.407425 113.11505 
L 286.277142 107.491519 
L 289.146858 101.512147 
L 292.016575 110.642433 
L 294.886292 113.214483 
L 297.756009 106.156042 
L 300.625725 110.842052 
L 303.495442 93.908472 
L 306.365159 100.362285 
L 309.234876 97.469263 
L 312.104593 98.369353 
L 314.974309 95.306736 
L 317.844026 102.978823 
L 320.713743 98.620719 
L 323.58346 97.632505 
L 326.453176 107.284353 
L 329.322893 105.924187 
L 332.19261 110.280425 
L 335.062327 108.914894 
L 337.932044 109.452286 
L 340.80176 111.383079 
L 343.671477 111.173287 
L 346.541194 108.293536 
L 349.410911 108.004133 
L 352.280627 107.88403 
L 355.150344 107.846827 
L 358.020061 107.756217 
" clip-path="url(#p525db483ce)" style="fill: none; stroke: #0072b2; stroke-width: 1.4; stroke-linecap: square"/>
   </g>
   <g id="line2d_24">
    <path d="M 214.534222 133.412902 
L 360.889778 133.412902 
" clip-path="url(#p525db483ce)" style="fill: none; stroke-dasharray: 0.8,1.32; stroke-dashoffset: 0; stroke: #777777; stroke-width: 0.8"/>
   </g>
   <g id="patch_6">
    <path d="M 214.534222 166.192 
L 214.534222 58.752 
" style="fill: none; stroke: #000000; stroke-width: 0.8; stroke-linejoin: miter; stroke-linecap: square"/>
   </g>
   <g id="patch_7">
    <path d="M 214.534222 166.192 
L 360.889778 166.192 
" style="fill: none; stroke: #000000; stroke-width: 0.8; stroke-linejoin: miter; stroke-linecap: square"/>
   </g>
   <g id="PathCollection_5">
    <g clip-path="url(#p525db483ce)">
     <use xlink:href="#mfab3d63f3f" x="266.189124" y="127.846283" style="fill: #d55e00; stroke: #d55e00"/>
    </g>
   </g>
   <g id="PathCollection_6">
    <path d="M 355.674853 146.494964 
L 360.365269 146.494964 
L 360.365269 141.804549 
L 355.674853 141.804549 
L 355.674853 146.494964 
z
" clip-path="url(#p525db483ce)" style="fill: none; stroke: #d55e00"/>
   </g>
   <g id="PathCollection_7">
    <g clip-path="url(#p525db483ce)">
     <use xlink:href="#m393fccbbc7" x="303.495442" y="93.908472" style="fill: #0072b2; stroke: #0072b2"/>
    </g>
   </g>
   <g id="PathCollection_8">
    <path d="M 355.674853 110.101425 
L 360.365269 110.101425 
L 360.365269 105.411009 
L 355.674853 105.411009 
L 355.674853 110.101425 
z
" clip-path="url(#p525db483ce)" style="fill: none; stroke: #0072b2"/>
   </g>
  </g>
  <g id="axes_3">
   <g id="patch_8">
    <path d="M 378.452444 166.192 
L 524.808 166.192 
L 524.808 58.752 
L 378.452444 58.752 
z
" style="fill: #ffffff"/>
   </g>
   <g id="matplotlib.axis_5">
    <g id="xtick_7">
     <g id="line2d_25">
      <g>
       <use xlink:href="#ma9c631b0f5" x="381.322161" y="166.192" style="stroke: #000000; stroke-width: 0.8"/>
      </g>
     </g>
    </g>
    <g id="xtick_8">
     <g id="line2d_26">
      <g>
       <use xlink:href="#ma9c631b0f5" x="450.195364" y="166.192" style="stroke: #000000; stroke-width: 0.8"/>
      </g>
     </g>
    </g>
    <g id="xtick_9">
     <g id="line2d_27">
      <g>
       <use xlink:href="#ma9c631b0f5" x="521.938283" y="166.192" style="stroke: #000000; stroke-width: 0.8"/>
      </g>
     </g>
    </g>
   </g>
   <g id="matplotlib.axis_6">
    <g id="ytick_7">
     <g id="line2d_28">
      <path d="M 378.452444 163.324414 
L 524.808 163.324414 
" clip-path="url(#pa37be62288)" style="fill: none; stroke: #b0b0b0; stroke-opacity: 0.3; stroke-width: 0.4; stroke-linecap: square"/>
     </g>
     <g id="line2d_29">
      <g>
       <use xlink:href="#mc3e713aa82" x="378.452444" y="163.324414" style="stroke: #000000; stroke-width: 0.8"/>
      </g>
     </g>
    </g>
    <g id="ytick_8">
     <g id="line2d_30">
      <path d="M 378.452444 127.600111 
L 524.808 127.600111 
" clip-path="url(#pa37be62288)" style="fill: none; stroke: #b0b0b0; stroke-opacity: 0.3; stroke-width: 0.4; stroke-linecap: square"/>
     </g>
     <g id="line2d_31">
      <g>
       <use xlink:href="#mc3e713aa82" x="378.452444" y="127.600111" style="stroke: #000000; stroke-width: 0.8"/>
      </g>
     </g>
    </g>
    <g id="ytick_9">
     <g id="line2d_32">
      <path d="M 378.452444 91.875807 
L 524.808 91.875807 
" clip-path="url(#pa37be62288)" style="fill: none; stroke: #b0b0b0; stroke-opacity: 0.3; stroke-width: 0.4; stroke-linecap: square"/>
     </g>
     <g id="line2d_33">
      <g>
       <use xlink:href="#mc3e713aa82" x="378.452444" y="91.875807" style="stroke: #000000; stroke-width: 0.8"/>
      </g>
     </g>
    </g>
   </g>
   <g id="line2d_34">
    <path d="M 381.322161 133.551366 
L 384.191878 133.248659 
L 387.061595 133.088926 
L 389.931312 133.736173 
L 392.801028 133.76157 
L 395.670745 132.680085 
L 398.540462 133.319127 
L 401.410179 133.003069 
L 404.279895 133.393145 
L 407.149612 135.399774 
L 410.019329 135.357004 
L 412.889046 136.902975 
L 415.758763 137.05256 
L 418.628479 133.853315 
L 421.498196 133.744501 
L 424.367913 134.694129 
L 427.23763 138.954679 
L 430.107346 134.093258 
L 432.977063 137.514011 
L 435.84678 136.789725 
L 438.716497 135.908443 
L 441.586214 137.130623 
L 444.45593 137.190678 
L 447.325647 134.704559 
L 450.195364 138.265523 
L 453.065081 136.654492 
L 455.934797 140.496395 
L 458.804514 137.58311 
L 461.674231 137.671058 
L 464.543948 141.396883 
L 467.413664 141.811854 
L 470.283381 137.046825 
L 473.153098 146.206218 
L 476.022815 144.830597 
L 478.892532 142.042758 
L 481.762248 144.368504 
L 484.631965 143.328373 
L 487.501682 144.890447 
L 490.371399 148.016741 
L 493.241115 149.557614 
L 496.110832 147.104398 
L 498.980549 148.501689 
L 501.850266 147.357798 
L 504.719983 150.907062 
L 507.589699 149.847152 
L 510.459416 147.912659 
L 513.329133 147.848505 
L 516.19885 148.442717 
L 519.068566 148.48084 
L 521.938283 148.464151 
" clip-path="url(#pa37be62288)" style="fill: none; stroke-dasharray: 5.18,2.24; stroke-dashoffset: 0; stroke: #d55e00; stroke-width: 1.4"/>
   </g>
   <g id="line2d_35">
    <path d="M 381.322161 133.506467 
L 384.191878 131.316324 
L 387.061595 127.763331 
L 389.931312 125.864261 
L 392.801028 121.425354 
L 395.670745 123.908619 
L 398.540462 121.27705 
L 401.410179 118.173208 
L 404.279895 114.50797 
L 407.149612 122.741303 
L 410.019329 121.719688 
L 412.889046 120.851213 
L 415.758763 122.819147 
L 418.628479 107.047687 
L 421.498196 113.781762 
L 424.367913 107.123704 
L 427.23763 110.083438 
L 430.107346 107.180934 
L 432.977063 105.883574 
L 435.84678 122.603476 
L 438.716497 112.830655 
L 441.586214 114.610435 
L 444.45593 106.383211 
L 447.325647 120.306833 
L 450.195364 111.535796 
L 453.065081 118.339522 
L 455.934797 116.978423 
L 458.804514 118.043927 
L 461.674231 111.288387 
L 464.543948 98.951809 
L 467.413664 111.970581 
L 470.283381 113.864291 
L 473.153098 137.193996 
L 476.022815 141.848339 
L 478.892532 140.482167 
L 481.762248 140.534968 
L 484.631965 152.995917 
L 487.501682 156.558423 
L 490.371399 149.77044 
L 493.241115 151.017706 
L 496.110832 149.0523 
L 498.980549 157.76551 
L 501.850266 160.672106 
L 504.719983 161.308364 
L 507.589699 160.215616 
L 510.459416 154.352375 
L 513.329133 155.576954 
L 516.19885 156.476598 
L 519.068566 156.376113 
L 521.938283 156.587363 
" clip-path="url(#pa37be62288)" style="fill: none; stroke: #0072b2; stroke-width: 1.4; stroke-linecap: square"/>
   </g>
   <g id="line2d_36">
    <path d="M 378.452444 133.412902 
L 524.808 133.412902 
" clip-path="url(#pa37be62288)" style="fill: none; stroke-dasharray: 0.8,1.32; stroke-dashoffset: 0; stroke: #777777; stroke-width: 0.8"/>
   </g>
   <g id="patch_9">
    <path d="M 378.452444 166.192 
L 378.452444 58.752 
" style="fill: none; stroke: #000000; stroke-width: 0.8; stroke-linejoin: miter; stroke-linecap: square"/>
   </g>
   <g id="patch_10">
    <path d="M 378.452444 166.192 
L 524.808 166.192 
" style="fill: none; stroke: #000000; stroke-width: 0.8; stroke-linejoin: miter; stroke-linecap: square"/>
   </g>
   <g id="PathCollection_9">
    <g clip-path="url(#pa37be62288)">
     <use xlink:href="#mfab3d63f3f" x="395.670745" y="132.680085" style="fill: #d55e00; stroke: #d55e00"/>
    </g>
   </g>
   <g id="PathCollection_10">
    <path d="M 519.593075 150.809359 
L 524.283491 150.809359 
L 524.283491 146.118944 
L 519.593075 146.118944 
L 519.593075 150.809359 
z
" clip-path="url(#pa37be62288)" style="fill: none; stroke: #d55e00"/>
   </g>
   <g id="PathCollection_11">
    <g clip-path="url(#pa37be62288)">
     <use xlink:href="#m393fccbbc7" x="464.543948" y="98.951809" style="fill: #0072b2; stroke: #0072b2"/>
    </g>
   </g>
   <g id="PathCollection_12">
    <path d="M 519.593075 158.932571 
L 524.283491 158.932571 
L 524.283491 154.242155 
L 519.593075 154.242155 
L 519.593075 158.932571 
z
" clip-path="url(#pa37be62288)" style="fill: none; stroke: #0072b2"/>
   </g>
  </g>
  <g id="axes_4">
   <g id="patch_11">
    <path d="M 50.616 305.864 
L 196.971556 305.864 
L 196.971556 198.424 
L 50.616 198.424 
z
" style="fill: #ffffff"/>
   </g>
   <g id="matplotlib.axis_7">
    <g id="xtick_10">
     <g id="line2d_37">
      <g>
       <use xlink:href="#ma9c631b0f5" x="53.485717" y="305.864" style="stroke: #000000; stroke-width: 0.8"/>
      </g>
     </g>
    </g>
    <g id="xtick_11">
     <g id="line2d_38">
      <g>
       <use xlink:href="#ma9c631b0f5" x="122.358919" y="305.864" style="stroke: #000000; stroke-width: 0.8"/>
      </g>
     </g>
    </g>
    <g id="xtick_12">
     <g id="line2d_39">
      <g>
       <use xlink:href="#ma9c631b0f5" x="194.101839" y="305.864" style="stroke: #000000; stroke-width: 0.8"/>
      </g>
     </g>
    </g>
   </g>
   <g id="matplotlib.axis_8">
    <g id="ytick_10">
     <g id="line2d_40">
      <path d="M 50.616 288.207776 
L 196.971556 288.207776 
" clip-path="url(#pbe476d9f71)" style="fill: none; stroke: #b0b0b0; stroke-opacity: 0.3; stroke-width: 0.4; stroke-linecap: square"/>
     </g>
     <g id="line2d_41">
      <g>
       <use xlink:href="#mc3e713aa82" x="50.616" y="288.207776" style="stroke: #000000; stroke-width: 0.8"/>
      </g>
     </g>
     <g id="text_5">
      <text style="font: 8px 'DejaVu Serif'; text-anchor: end" x="43.616" y="291.247151" transform="rotate(-0 43.616 291.247151)">80</text>
     </g>
    </g>
    <g id="ytick_11">
     <g id="line2d_42">
      <path d="M 50.616 256.802238 
L 196.971556 256.802238 
" clip-path="url(#pbe476d9f71)" style="fill: none; stroke: #b0b0b0; stroke-opacity: 0.3; stroke-width: 0.4; stroke-linecap: square"/>
     </g>
     <g id="line2d_43">
      <g>
       <use xlink:href="#mc3e713aa82" x="50.616" y="256.802238" style="stroke: #000000; stroke-width: 0.8"/>
      </g>
     </g>
     <g id="text_6">
      <text style="font: 8px 'DejaVu Serif'; text-anchor: end" x="43.616" y="259.841613" transform="rotate(-0 43.616 259.841613)">82</text>
     </g>
    </g>
    <g id="ytick_12">
     <g id="line2d_44">
      <path d="M 50.616 225.396699 
L 196.971556 225.396699 
" clip-path="url(#pbe476d9f71)" style="fill: none; stroke: #b0b0b0; stroke-opacity: 0.3; stroke-width: 0.4; stroke-linecap: square"/>
     </g>
     <g id="line2d_45">
      <g>
       <use xlink:href="#mc3e713aa82" x="50.616" y="225.396699" style="stroke: #000000; stroke-width: 0.8"/>
      </g>
     </g>
     <g id="text_7">
      <text style="font: 8px 'DejaVu Serif'; text-anchor: end" x="43.616" y="228.436074" transform="rotate(-0 43.616 228.436074)">84</text>
     </g>
    </g>
    <g id="text_8">
     <text style="font: 9px 'DejaVu Serif'; text-anchor: middle" x="27.564281" y="252.144" transform="rotate(-90 27.564281 252.144)">Rank-1 (%)</text>
    </g>
   </g>
   <g id="line2d_46">
    <path d="M 53.485717 278.440503 
L 56.355434 276.562182 
L 59.22515 274.68386 
L 62.094867 274.68386 
L 64.964584 272.805538 
L 67.834301 278.440503 
L 70.704017 276.562182 
L 73.573734 280.318825 
L 76.443451 278.440503 
L 79.313168 278.440503 
L 82.182885 280.318825 
L 85.052601 278.440503 
L 87.922318 280.318825 
L 90.792035 282.197147 
L 93.661752 278.440503 
L 96.531468 282.197147 
L 99.401185 280.318825 
L 102.270902 282.197147 
L 105.140619 280.318825 
L 108.010336 280.318825 
L 110.880052 285.95379 
L 113.749769 278.440503 
L 116.619486 289.710434 
L 119.489203 282.197147 
L 122.358919 282.197147 
L 125.228636 276.562182 
L 128.098353 284.075469 
L 130.96807 291.588755 
L 133.837786 284.075469 
L 136.707503 291.588755 
L 139.57722 278.440503 
L 142.446937 278.440503 
L 145.316654 278.440503 
L 148.18637 282.197147 
L 151.056087 280.318825 
L 153.925804 280.318825 
L 156.795521 282.197147 
L 159.665237 287.832112 
L 162.534954 282.197147 
L 165.404671 285.95379 
L 168.274388 291.588755 
L 171.144105 285.95379 
L 174.013821 289.710434 
L 176.883538 287.832112 
L 179.753255 287.832112 
L 182.622972 287.832112 
L 185.492688 287.832112 
L 188.362405 287.832112 
L 191.232122 287.832112 
L 194.101839 287.832112 
" clip-path="url(#pbe476d9f71)" style="fill: none; stroke-dasharray: 5.18,2.24; stroke-dashoffset: 0; stroke: #d55e00; stroke-width: 1.4"/>
   </g>
   <g id="line2d_47">
    <path d="M 53.485717 278.440503 
L 56.355434 274.68386 
L 59.22515 272.805538 
L 62.094867 270.927217 
L 64.964584 269.048895 
L 67.834301 267.170573 
L 70.704017 263.41393 
L 73.573734 267.170573 
L 76.443451 254.022322 
L 79.313168 257.778965 
L 82.182885 259.657287 
L 85.052601 261.535608 
L 87.922318 255.900643 
L 90.792035 257.778965 
L 93.661752 265.292252 
L 96.531468 248.387357 
L 99.401185 246.509035 
L 102.270902 250.265678 
L 105.140619 254.022322 
L 108.010336 244.630713 
L 110.880052 250.265678 
L 113.749769 265.292252 
L 116.619486 237.117427 
L 119.489203 237.117427 
L 122.358919 229.60414 
L 125.228636 229.60414 
L 128.098353 233.360783 
L 130.96807 229.60414 
L 133.837786 216.455888 
L 136.707503 216.455888 
L 139.57722 214.577566 
L 142.446937 203.307636 
L 145.316654 216.455888 
L 148.18637 220.212531 
L 151.056087 214.577566 
L 153.925804 218.33421 
L 156.795521 212.699245 
L 159.665237 208.942601 
L 162.534954 203.307636 
L 165.404671 207.06428 
L 168.274388 222.090853 
L 171.144105 223.969175 
L 174.013821 212.699245 
L 176.883538 210.820923 
L 179.753255 208.942601 
L 182.622972 210.820923 
L 185.492688 210.820923 
L 188.362405 210.820923 
L 191.232122 210.820923 
L 194.101839 208.942601 
" clip-path="url(#pbe476d9f71)" style="fill: none; stroke: #0072b2; stroke-width: 1.4; stroke-linecap: square"/>
   </g>
   <g id="line2d_48">
    <path d="M 50.616 278.440503 
L 196.971556 278.440503 
" clip-path="url(#pbe476d9f71)" style="fill: none; stroke-dasharray: 0.8,1.32; stroke-dashoffset: 0; stroke: #777777; stroke-width: 0.8"/>
   </g>
   <g id="patch_12">
    <path d="M 50.616 305.864 
L 50.616 198.424 
" style="fill: none; stroke: #000000; stroke-width: 0.8; stroke-linejoin: miter; stroke-linecap: square"/>
   </g>
   <g id="patch_13">
    <path d="M 50.616 305.864 
L 196.971556 305.864 
" style="fill: none; stroke: #000000; stroke-width: 0.8; stroke-linejoin: miter; stroke-linecap: square"/>
   </g>
   <g id="PathCollection_13">
    <g clip-path="url(#pbe476d9f71)">
     <use xlink:href="#mfab3d63f3f" x="139.57722" y="278.440503" style="fill: #d55e00; stroke: #d55e00"/>
    </g>
   </g>
   <g id="PathCollection_14">
    <path d="M 191.756631 290.17732 
L 196.447047 290.17732 
L 196.447047 285.486904 
L 191.756631 285.486904 
L 191.756631 290.17732 
z
" clip-path="url(#pbe476d9f71)" style="fill: none; stroke: #d55e00"/>
   </g>
   <g id="PathCollection_15">
    <g clip-path="url(#pbe476d9f71)">
     <use xlink:href="#m393fccbbc7" x="136.707503" y="216.455888" style="fill: #0072b2; stroke: #0072b2"/>
    </g>
   </g>
   <g id="PathCollection_16">
    <path d="M 191.756631 211.287809 
L 196.447047 211.287809 
L 196.447047 206.597394 
L 191.756631 206.597394 
L 191.756631 211.287809 
z
" clip-path="url(#pbe476d9f71)" style="fill: none; stroke: #0072b2"/>
   </g>
  </g>
  <g id="axes_5">
   <g id="patch_14">
    <path d="M 214.534222 305.864 
L 360.889778 305.864 
L 360.889778 198.424 
L 214.534222 198.424 
z
" style="fill: #ffffff"/>
   </g>
   <g id="matplotlib.axis_9">
    <g id="xtick_13">
     <g id="line2d_49">
      <g>
       <use xlink:href="#ma9c631b0f5" x="217.403939" y="305.864" style="stroke: #000000; stroke-width: 0.8"/>
      </g>
     </g>
    </g>
    <g id="xtick_14">
     <g id="line2d_50">
      <g>
       <use xlink:href="#ma9c631b0f5" x="286.277142" y="305.864" style="stroke: #000000; stroke-width: 0.8"/>
      </g>
     </g>
    </g>
    <g id="xtick_15">
     <g id="line2d_51">
      <g>
       <use xlink:href="#ma9c631b0f5" x="358.020061" y="305.864" style="stroke: #000000; stroke-width: 0.8"/>
      </g>
     </g>
    </g>
   </g>
   <g id="matplotlib.axis_10">
    <g id="ytick_13">
     <g id="line2d_52">
      <path d="M 214.534222 288.207776 
L 360.889778 288.207776 
" clip-path="url(#p938466e5bb)" style="fill: none; stroke: #b0b0b0; stroke-opacity: 0.3; stroke-width: 0.4; stroke-linecap: square"/>
     </g>
     <g id="line2d_53">
      <g>
       <use xlink:href="#mc3e713aa82" x="214.534222" y="288.207776" style="stroke: #000000; stroke-width: 0.8"/>
      </g>
     </g>
    </g>
    <g id="ytick_14">
     <g id="line2d_54">
      <path d="M 214.534222 256.802238 
L 360.889778 256.802238 
" clip-path="url(#p938466e5bb)" style="fill: none; stroke: #b0b0b0; stroke-opacity: 0.3; stroke-width: 0.4; stroke-linecap: square"/>
     </g>
     <g id="line2d_55">
      <g>
       <use xlink:href="#mc3e713aa82" x="214.534222" y="256.802238" style="stroke: #000000; stroke-width: 0.8"/>
      </g>
     </g>
    </g>
    <g id="ytick_15">
     <g id="line2d_56">
      <path d="M 214.534222 225.396699 
L 360.889778 225.396699 
" clip-path="url(#p938466e5bb)" style="fill: none; stroke: #b0b0b0; stroke-opacity: 0.3; stroke-width: 0.4; stroke-linecap: square"/>
     </g>
     <g id="line2d_57">
      <g>
       <use xlink:href="#mc3e713aa82" x="214.534222" y="225.396699" style="stroke: #000000; stroke-width: 0.8"/>
      </g>
     </g>
    </g>
   </g>
   <g id="line2d_58">
    <path d="M 217.403939 278.440503 
L 220.273656 280.318825 
L 223.143373 280.318825 
L 226.013089 280.318825 
L 228.882806 282.197147 
L 231.752523 284.075469 
L 234.62224 282.197147 
L 237.491956 284.075469 
L 240.361673 282.197147 
L 243.23139 285.95379 
L 246.101107 284.075469 
L 248.970824 284.075469 
L 251.84054 284.075469 
L 254.710257 280.318825 
L 257.579974 282.197147 
L 260.449691 285.95379 
L 263.319407 276.562182 
L 266.189124 278.440503 
L 269.058841 280.318825 
L 271.928558 289.710434 
L 274.798275 287.832112 
L 277.667991 289.710434 
L 280.537708 285.95379 
L 283.407425 282.197147 
L 286.277142 291.588755 
L 289.146858 291.588755 
L 292.016575 299.102042 
L 294.886292 291.588755 
L 297.756009 287.832112 
L 300.625725 289.710434 
L 303.495442 287.832112 
L 306.365159 289.710434 
L 309.234876 295.345399 
L 312.104593 295.345399 
L 314.974309 293.467077 
L 317.844026 293.467077 
L 320.713743 299.102042 
L 323.58346 300.980364 
L 326.453176 293.467077 
L 329.322893 295.345399 
L 332.19261 291.588755 
L 335.062327 295.345399 
L 337.932044 297.22372 
L 340.80176 295.345399 
L 343.671477 297.22372 
L 346.541194 297.22372 
L 349.410911 295.345399 
L 352.280627 295.345399 
L 355.150344 295.345399 
L 358.020061 295.345399 
" clip-path="url(#p938466e5bb)" style="fill: none; stroke-dasharray: 5.18,2.24; stroke-dashoffset: 0; stroke: #d55e00; stroke-width: 1.4"/>
   </g>
   <g id="line2d_59">
    <path d="M 217.403939 278.440503 
L 220.273656 274.68386 
L 223.143373 276.562182 
L 226.013089 269.048895 
L 228.882806 274.68386 
L 231.752523 267.170573 
L 234.62224 278.440503 
L 237.491956 270.927217 
L 240.361673 274.68386 
L 243.23139 274.68386 
L 246.101107 272.805538 
L 248.970824 263.41393 
L 251.84054 261.535608 
L 254.710257 272.805538 
L 257.579974 261.535608 
L 260.449691 267.170573 
L 263.319407 267.170573 
L 266.189124 276.562182 
L 269.058841 267.170573 
L 271.928558 287.832112 
L 274.798275 269.048895 
L 277.667991 269.048895 
L 280.537708 276.562182 
L 283.407425 269.048895 
L 286.277142 265.292252 
L 289.146858 259.657287 
L 292.016575 272.805538 
L 294.886292 265.292252 
L 297.756009 257.778965 
L 300.625725 240.87407 
L 303.495442 233.360783 
L 306.365159 248.387357 
L 309.234876 248.387357 
L 312.104593 246.509035 
L 314.974309 244.630713 
L 317.844026 252.144 
L 320.713743 244.630713 
L 323.58346 244.630713 
L 326.453176 255.900643 
L 329.322893 254.022322 
L 332.19261 252.144 
L 335.062327 257.778965 
L 337.932044 255.900643 
L 340.80176 248.387357 
L 343.671477 254.022322 
L 346.541194 250.265678 
L 349.410911 248.387357 
L 352.280627 248.387357 
L 355.150344 248.387357 
L 358.020061 248.387357 
" clip-path="url(#p938466e5bb)" style="fill: none; stroke: #0072b2; stroke-width: 1.4; stroke-linecap: square"/>
   </g>
   <g id="line2d_60">
    <path d="M 214.534222 278.440503 
L 360.889778 278.440503 
" clip-path="url(#p938466e5bb)" style="fill: none; stroke-dasharray: 0.8,1.32; stroke-dashoffset: 0; stroke: #777777; stroke-width: 0.8"/>
   </g>
   <g id="patch_15">
    <path d="M 214.534222 305.864 
L 214.534222 198.424 
" style="fill: none; stroke: #000000; stroke-width: 0.8; stroke-linejoin: miter; stroke-linecap: square"/>
   </g>
   <g id="patch_16">
    <path d="M 214.534222 305.864 
L 360.889778 305.864 
" style="fill: none; stroke: #000000; stroke-width: 0.8; stroke-linejoin: miter; stroke-linecap: square"/>
   </g>
   <g id="PathCollection_17">
    <g clip-path="url(#p938466e5bb)">
     <use xlink:href="#mfab3d63f3f" x="266.189124" y="278.440503" style="fill: #d55e00; stroke: #d55e00"/>
    </g>
   </g>
   <g id="PathCollection_18">
    <path d="M 355.674853 297.690606 
L 360.365269 297.690606 
L 360.365269 293.000191 
L 355.674853 293.000191 
L 355.674853 297.690606 
z
" clip-path="url(#p938466e5bb)" style="fill: none; stroke: #d55e00"/>
   </g>
   <g id="PathCollection_19">
    <g clip-path="url(#p938466e5bb)">
     <use xlink:href="#m393fccbbc7" x="303.495442" y="233.360783" style="fill: #0072b2; stroke: #0072b2"/>
    </g>
   </g>
   <g id="PathCollection_20">
    <path d="M 355.674853 250.732565 
L 360.365269 250.732565 
L 360.365269 246.042149 
L 355.674853 246.042149 
L 355.674853 250.732565 
z
" clip-path="url(#p938466e5bb)" style="fill: none; stroke: #0072b2"/>
   </g>
  </g>
  <g id="axes_6">
   <g id="patch_17">
    <path d="M 378.452444 305.864 
L 524.808 305.864 
L 524.808 198.424 
L 378.452444 198.424 
z
" style="fill: #ffffff"/>
   </g>
   <g id="matplotlib.axis_11">
    <g id="xtick_16">
     <g id="line2d_61">
      <g>
       <use xlink:href="#ma9c631b0f5" x="381.322161" y="305.864" style="stroke: #000000; stroke-width: 0.8"/>
      </g>
     </g>
    </g>
    <g id="xtick_17">
     <g id="line2d_62">
      <g>
       <use xlink:href="#ma9c631b0f5" x="450.195364" y="305.864" style="stroke: #000000; stroke-width: 0.8"/>
      </g>
     </g>
    </g>
    <g id="xtick_18">
     <g id="line2d_63">
      <g>
       <use xlink:href="#ma9c631b0f5" x="521.938283" y="305.864" style="stroke: #000000; stroke-width: 0.8"/>
      </g>
     </g>
    </g>
   </g>
   <g id="matplotlib.axis_12">
    <g id="ytick_16">
     <g id="line2d_64">
      <path d="M 378.452444 288.207776 
L 524.808 288.207776 
" clip-path="url(#p614fefd6d7)" style="fill: none; stroke: #b0b0b0; stroke-opacity: 0.3; stroke-width: 0.4; stroke-linecap: square"/>
     </g>
     <g id="line2d_65">
      <g>
       <use xlink:href="#mc3e713aa82" x="378.452444" y="288.207776" style="stroke: #000000; stroke-width: 0.8"/>
      </g>
     </g>
    </g>
    <g id="ytick_17">
     <g id="line2d_66">
      <path d="M 378.452444 256.802238 
L 524.808 256.802238 
" clip-path="url(#p614fefd6d7)" style="fill: none; stroke: #b0b0b0; stroke-opacity: 0.3; stroke-width: 0.4; stroke-linecap: square"/>
     </g>
     <g id="line2d_67">
      <g>
       <use xlink:href="#mc3e713aa82" x="378.452444" y="256.802238" style="stroke: #000000; stroke-width: 0.8"/>
      </g>
     </g>
    </g>
    <g id="ytick_18">
     <g id="line2d_68">
      <path d="M 378.452444 225.396699 
L 524.808 225.396699 
" clip-path="url(#p614fefd6d7)" style="fill: none; stroke: #b0b0b0; stroke-opacity: 0.3; stroke-width: 0.4; stroke-linecap: square"/>
     </g>
     <g id="line2d_69">
      <g>
       <use xlink:href="#mc3e713aa82" x="378.452444" y="225.396699" style="stroke: #000000; stroke-width: 0.8"/>
      </g>
     </g>
    </g>
   </g>
   <g id="line2d_70">
    <path d="M 381.322161 278.440503 
L 384.191878 282.197147 
L 387.061595 282.197147 
L 389.931312 282.197147 
L 392.801028 284.075469 
L 395.670745 280.318825 
L 398.540462 280.318825 
L 401.410179 284.075469 
L 404.279895 282.197147 
L 407.149612 284.075469 
L 410.019329 280.318825 
L 412.889046 278.440503 
L 415.758763 284.075469 
L 418.628479 282.197147 
L 421.498196 280.318825 
L 424.367913 284.075469 
L 427.23763 289.710434 
L 430.107346 278.440503 
L 432.977063 293.467077 
L 435.84678 285.95379 
L 438.716497 287.832112 
L 441.586214 280.318825 
L 444.45593 289.710434 
L 447.325647 278.440503 
L 450.195364 284.075469 
L 453.065081 287.832112 
L 455.934797 291.588755 
L 458.804514 295.345399 
L 461.674231 284.075469 
L 464.543948 293.467077 
L 467.413664 289.710434 
L 470.283381 284.075469 
L 473.153098 295.345399 
L 476.022815 291.588755 
L 478.892532 284.075469 
L 481.762248 293.467077 
L 484.631965 291.588755 
L 487.501682 291.588755 
L 490.371399 299.102042 
L 493.241115 297.22372 
L 496.110832 293.467077 
L 498.980549 295.345399 
L 501.850266 297.22372 
L 504.719983 300.980364 
L 507.589699 297.22372 
L 510.459416 293.467077 
L 513.329133 293.467077 
L 516.19885 293.467077 
L 519.068566 293.467077 
L 521.938283 293.467077 
" clip-path="url(#p614fefd6d7)" style="fill: none; stroke-dasharray: 5.18,2.24; stroke-dashoffset: 0; stroke: #d55e00; stroke-width: 1.4"/>
   </g>
   <g id="line2d_71">
    <path d="M 381.322161 278.440503 
L 384.191878 280.318825 
L 387.061595 276.562182 
L 389.931312 282.197147 
L 392.801028 272.805538 
L 395.670745 272.805538 
L 398.540462 272.805538 
L 401.410179 269.048895 
L 404.279895 274.68386 
L 407.149612 278.440503 
L 410.019329 276.562182 
L 412.889046 274.68386 
L 415.758763 285.95379 
L 418.628479 269.048895 
L 421.498196 274.68386 
L 424.367913 272.805538 
L 427.23763 276.562182 
L 430.107346 261.535608 
L 432.977063 267.170573 
L 435.84678 287.832112 
L 438.716497 276.562182 
L 441.586214 274.68386 
L 444.45593 265.292252 
L 447.325647 278.440503 
L 450.195364 259.657287 
L 453.065081 272.805538 
L 455.934797 263.41393 
L 458.804514 274.68386 
L 461.674231 276.562182 
L 464.543948 257.778965 
L 467.413664 255.900643 
L 470.283381 248.387357 
L 473.153098 284.075469 
L 476.022815 285.95379 
L 478.892532 265.292252 
L 481.762248 261.535608 
L 484.631965 291.588755 
L 487.501682 293.467077 
L 490.371399 284.075469 
L 493.241115 284.075469 
L 496.110832 280.318825 
L 498.980549 291.588755 
L 501.850266 291.588755 
L 504.719983 285.95379 
L 507.589699 285.95379 
L 510.459416 278.440503 
L 513.329133 278.440503 
L 516.19885 278.440503 
L 519.068566 278.440503 
L 521.938283 278.440503 
" clip-path="url(#p614fefd6d7)" style="fill: none; stroke: #0072b2; stroke-width: 1.4; stroke-linecap: square"/>
   </g>
   <g id="line2d_72">
    <path d="M 378.452444 278.440503 
L 524.808 278.440503 
" clip-path="url(#p614fefd6d7)" style="fill: none; stroke-dasharray: 0.8,1.32; stroke-dashoffset: 0; stroke: #777777; stroke-width: 0.8"/>
   </g>
   <g id="patch_18">
    <path d="M 378.452444 305.864 
L 378.452444 198.424 
" style="fill: none; stroke: #000000; stroke-width: 0.8; stroke-linejoin: miter; stroke-linecap: square"/>
   </g>
   <g id="patch_19">
    <path d="M 378.452444 305.864 
L 524.808 305.864 
" style="fill: none; stroke: #000000; stroke-width: 0.8; stroke-linejoin: miter; stroke-linecap: square"/>
   </g>
   <g id="PathCollection_21">
    <g clip-path="url(#p614fefd6d7)">
     <use xlink:href="#mfab3d63f3f" x="395.670745" y="280.318825" style="fill: #d55e00; stroke: #d55e00"/>
    </g>
   </g>
   <g id="PathCollection_22">
    <path d="M 519.593075 295.812285 
L 524.283491 295.812285 
L 524.283491 291.121869 
L 519.593075 291.121869 
L 519.593075 295.812285 
z
" clip-path="url(#p614fefd6d7)" style="fill: none; stroke: #d55e00"/>
   </g>
   <g id="PathCollection_23">
    <g clip-path="url(#p614fefd6d7)">
     <use xlink:href="#m393fccbbc7" x="464.543948" y="257.778965" style="fill: #0072b2; stroke: #0072b2"/>
    </g>
   </g>
   <g id="PathCollection_24">
    <path d="M 519.593075 280.785711 
L 524.283491 280.785711 
L 524.283491 276.095296 
L 519.593075 276.095296 
L 519.593075 280.785711 
z
" clip-path="url(#p614fefd6d7)" style="fill: none; stroke: #0072b2"/>
   </g>
  </g>
  <g id="axes_7">
   <g id="patch_20">
    <path d="M 50.616 445.536 
L 196.971556 445.536 
L 196.971556 338.096 
L 50.616 338.096 
z
" style="fill: #ffffff"/>
   </g>
   <g id="matplotlib.axis_13">
    <g id="xtick_19">
     <g id="line2d_73">
      <g>
       <use xlink:href="#ma9c631b0f5" x="53.485717" y="445.536" style="stroke: #000000; stroke-width: 0.8"/>
      </g>
     </g>
     <g id="text_9">
      <text style="font: 8px 'DejaVu Serif'; text-anchor: middle" x="53.485717" y="458.61475" transform="rotate(-0 53.485717 458.61475)">1</text>
     </g>
    </g>
    <g id="xtick_20">
     <g id="line2d_74">
      <g>
       <use xlink:href="#ma9c631b0f5" x="122.358919" y="445.536" style="stroke: #000000; stroke-width: 0.8"/>
      </g>
     </g>
     <g id="text_10">
      <text style="font: 8px 'DejaVu Serif'; text-anchor: middle" x="122.358919" y="458.61475" transform="rotate(-0 122.358919 458.61475)">25</text>
     </g>
    </g>
    <g id="xtick_21">
     <g id="line2d_75">
      <g>
       <use xlink:href="#ma9c631b0f5" x="194.101839" y="445.536" style="stroke: #000000; stroke-width: 0.8"/>
      </g>
     </g>
     <g id="text_11">
      <text style="font: 8px 'DejaVu Serif'; text-anchor: middle" x="194.101839" y="458.61475" transform="rotate(-0 194.101839 458.61475)">50</text>
     </g>
    </g>
    <g id="text_12">
     <text style="font: 9px 'DejaVu Serif'; text-anchor: middle" x="123.793778" y="471.117094" transform="rotate(-0 123.793778 471.117094)">Additional epoch (seed 42)</text>
    </g>
   </g>
   <g id="matplotlib.axis_14">
    <g id="ytick_19">
     <g id="line2d_76">
      <path d="M 50.616 427.659563 
L 196.971556 427.659563 
" clip-path="url(#pe4da6634b7)" style="fill: none; stroke: #b0b0b0; stroke-opacity: 0.3; stroke-width: 0.4; stroke-linecap: square"/>
     </g>
     <g id="line2d_77">
      <g>
       <use xlink:href="#mc3e713aa82" x="50.616" y="427.659563" style="stroke: #000000; stroke-width: 0.8"/>
      </g>
     </g>
     <g id="text_13">
      <text style="font: 8px 'DejaVu Serif'; text-anchor: end" x="43.616" y="430.698938" transform="rotate(-0 43.616 430.698938)">1.0</text>
     </g>
    </g>
    <g id="ytick_20">
     <g id="line2d_78">
      <path d="M 50.616 397.839401 
L 196.971556 397.839401 
" clip-path="url(#pe4da6634b7)" style="fill: none; stroke: #b0b0b0; stroke-opacity: 0.3; stroke-width: 0.4; stroke-linecap: square"/>
     </g>
     <g id="line2d_79">
      <g>
       <use xlink:href="#mc3e713aa82" x="50.616" y="397.839401" style="stroke: #000000; stroke-width: 0.8"/>
      </g>
     </g>
     <g id="text_14">
      <text style="font: 8px 'DejaVu Serif'; text-anchor: end" x="43.616" y="400.878776" transform="rotate(-0 43.616 400.878776)">1.5</text>
     </g>
    </g>
    <g id="ytick_21">
     <g id="line2d_80">
      <path d="M 50.616 368.019239 
L 196.971556 368.019239 
" clip-path="url(#pe4da6634b7)" style="fill: none; stroke: #b0b0b0; stroke-opacity: 0.3; stroke-width: 0.4; stroke-linecap: square"/>
     </g>
     <g id="line2d_81">
      <g>
       <use xlink:href="#mc3e713aa82" x="50.616" y="368.019239" style="stroke: #000000; stroke-width: 0.8"/>
      </g>
     </g>
     <g id="text_15">
      <text style="font: 8px 'DejaVu Serif'; text-anchor: end" x="43.616" y="371.058614" transform="rotate(-0 43.616 371.058614)">2.0</text>
     </g>
    </g>
    <g id="ytick_22">
     <g id="line2d_82">
      <path d="M 50.616 338.199077 
L 196.971556 338.199077 
" clip-path="url(#pe4da6634b7)" style="fill: none; stroke: #b0b0b0; stroke-opacity: 0.3; stroke-width: 0.4; stroke-linecap: square"/>
     </g>
     <g id="line2d_83">
      <g>
       <use xlink:href="#mc3e713aa82" x="50.616" y="338.199077" style="stroke: #000000; stroke-width: 0.8"/>
      </g>
     </g>
     <g id="text_16">
      <text style="font: 8px 'DejaVu Serif'; text-anchor: end" x="43.616" y="341.238452" transform="rotate(-0 43.616 341.238452)">2.5</text>
     </g>
    </g>
    <g id="text_17">
     <text style="font: 9px 'DejaVu Serif'; text-anchor: middle" x="24.893813" y="391.816" transform="rotate(-90 24.893813 391.816)">Training objective</text>
    </g>
   </g>
   <g id="line2d_84">
    <path d="M 53.485717 343.309787 
L 56.355434 365.3285 
L 59.22515 397.912077 
L 62.094867 412.892706 
L 64.964584 419.413134 
L 67.834301 424.741661 
L 70.704017 429.301751 
L 73.573734 432.020381 
L 76.443451 433.86277 
L 79.313168 435.939143 
L 82.182885 436.808391 
L 85.052601 437.643076 
L 87.922318 438.051827 
L 90.792035 438.612444 
L 93.661752 438.793869 
L 96.531468 438.92574 
L 99.401185 438.979487 
L 102.270902 439.363496 
L 105.140619 439.366473 
L 108.010336 439.741321 
L 110.880052 439.954091 
L 113.749769 440.102778 
L 116.619486 440.122405 
L 119.489203 440.11403 
L 122.358919 440.428526 
L 125.228636 440.521241 
L 128.098353 440.274714 
L 130.96807 440.652364 
L 133.837786 439.745288 
L 136.707503 439.379251 
L 139.57722 439.504827 
L 142.446937 440.109031 
L 145.316654 440.005035 
L 148.18637 439.745818 
L 151.056087 440.124719 
L 153.925804 440.422266 
L 156.795521 439.96865 
L 159.665237 439.295627 
L 162.534954 440.042543 
L 165.404671 440.63582 
L 168.274388 439.926741 
L 171.144105 440.028308 
L 174.013821 440.477342 
L 176.883538 440.565763 
L 179.753255 440.589684 
L 182.622972 439.684112 
L 185.492688 440.150345 
L 188.362405 440.413165 
L 191.232122 440.101889 
L 194.101839 440.381849 
" clip-path="url(#pe4da6634b7)" style="fill: none; stroke-dasharray: 5.18,2.24; stroke-dashoffset: 0; stroke: #d55e00; stroke-width: 1.4"/>
   </g>
   <g id="line2d_85">
    <path d="M 53.485717 342.999141 
L 56.355434 364.700862 
L 59.22515 397.507085 
L 62.094867 412.583111 
L 64.964584 419.119771 
L 67.834301 424.469666 
L 70.704017 429.015185 
L 73.573734 431.754379 
L 76.443451 433.56878 
L 79.313168 435.647849 
L 82.182885 436.556481 
L 85.052601 437.398818 
L 87.922318 437.8717 
L 90.792035 438.413484 
L 93.661752 438.608353 
L 96.531468 438.69394 
L 99.401185 438.817629 
L 102.270902 439.160236 
L 105.140619 439.184102 
L 108.010336 439.592393 
L 110.880052 439.769373 
L 113.749769 439.921107 
L 116.619486 439.935162 
L 119.489203 439.949325 
L 122.358919 440.265661 
L 125.228636 440.372271 
L 128.098353 440.103913 
L 130.96807 440.488967 
L 133.837786 439.571762 
L 136.707503 439.212767 
L 139.57722 439.270878 
L 142.446937 439.939359 
L 145.316654 439.820513 
L 148.18637 439.618652 
L 151.056087 439.950713 
L 153.925804 440.326993 
L 156.795521 439.868749 
L 159.665237 439.202641 
L 162.534954 439.941517 
L 165.404671 440.506991 
L 168.274388 439.750154 
L 171.144105 439.900359 
L 174.013821 440.363699 
L 176.883538 440.408216 
L 179.753255 440.402581 
L 182.622972 439.585616 
L 185.492688 440.028504 
L 188.362405 440.300746 
L 191.232122 439.965208 
L 194.101839 440.267535 
" clip-path="url(#pe4da6634b7)" style="fill: none; stroke: #0072b2; stroke-width: 1.4; stroke-linecap: square"/>
   </g>
   <g id="patch_21">
    <path d="M 50.616 445.536 
L 50.616 338.096 
" style="fill: none; stroke: #000000; stroke-width: 0.8; stroke-linejoin: miter; stroke-linecap: square"/>
   </g>
   <g id="patch_22">
    <path d="M 50.616 445.536 
L 196.971556 445.536 
" style="fill: none; stroke: #000000; stroke-width: 0.8; stroke-linejoin: miter; stroke-linecap: square"/>
   </g>
   <g id="PathCollection_25">
    <g clip-path="url(#pe4da6634b7)">
     <use xlink:href="#mfab3d63f3f" x="139.57722" y="439.504827" style="fill: #d55e00; stroke: #d55e00"/>
    </g>
   </g>
   <g id="PathCollection_26">
    <path d="M 191.756631 442.727057 
L 196.447047 442.727057 
L 196.447047 438.036641 
L 191.756631 438.036641 
L 191.756631 442.727057 
z
" clip-path="url(#pe4da6634b7)" style="fill: none; stroke: #d55e00"/>
   </g>
   <g id="PathCollection_27">
    <g clip-path="url(#pe4da6634b7)">
     <use xlink:href="#m393fccbbc7" x="136.707503" y="439.212767" style="fill: #0072b2; stroke: #0072b2"/>
    </g>
   </g>
   <g id="PathCollection_28">
    <path d="M 191.756631 442.612743 
L 196.447047 442.612743 
L 196.447047 437.922327 
L 191.756631 437.922327 
L 191.756631 442.612743 
z
" clip-path="url(#pe4da6634b7)" style="fill: none; stroke: #0072b2"/>
   </g>
  </g>
  <g id="axes_8">
   <g id="patch_23">
    <path d="M 214.534222 445.536 
L 360.889778 445.536 
L 360.889778 338.096 
L 214.534222 338.096 
z
" style="fill: #ffffff"/>
   </g>
   <g id="matplotlib.axis_15">
    <g id="xtick_22">
     <g id="line2d_86">
      <g>
       <use xlink:href="#ma9c631b0f5" x="217.403939" y="445.536" style="stroke: #000000; stroke-width: 0.8"/>
      </g>
     </g>
     <g id="text_18">
      <text style="font: 8px 'DejaVu Serif'; text-anchor: middle" x="217.403939" y="458.61475" transform="rotate(-0 217.403939 458.61475)">1</text>
     </g>
    </g>
    <g id="xtick_23">
     <g id="line2d_87">
      <g>
       <use xlink:href="#ma9c631b0f5" x="286.277142" y="445.536" style="stroke: #000000; stroke-width: 0.8"/>
      </g>
     </g>
     <g id="text_19">
      <text style="font: 8px 'DejaVu Serif'; text-anchor: middle" x="286.277142" y="458.61475" transform="rotate(-0 286.277142 458.61475)">25</text>
     </g>
    </g>
    <g id="xtick_24">
     <g id="line2d_88">
      <g>
       <use xlink:href="#ma9c631b0f5" x="358.020061" y="445.536" style="stroke: #000000; stroke-width: 0.8"/>
      </g>
     </g>
     <g id="text_20">
      <text style="font: 8px 'DejaVu Serif'; text-anchor: middle" x="358.020061" y="458.61475" transform="rotate(-0 358.020061 458.61475)">50</text>
     </g>
    </g>
    <g id="text_21">
     <text style="font: 9px 'DejaVu Serif'; text-anchor: middle" x="287.712" y="471.117094" transform="rotate(-0 287.712 471.117094)">Additional epoch (seed 43)</text>
    </g>
   </g>
   <g id="matplotlib.axis_16">
    <g id="ytick_23">
     <g id="line2d_89">
      <path d="M 214.534222 427.659563 
L 360.889778 427.659563 
" clip-path="url(#p34af0230cc)" style="fill: none; stroke: #b0b0b0; stroke-opacity: 0.3; stroke-width: 0.4; stroke-linecap: square"/>
     </g>
     <g id="line2d_90">
      <g>
       <use xlink:href="#mc3e713aa82" x="214.534222" y="427.659563" style="stroke: #000000; stroke-width: 0.8"/>
      </g>
     </g>
    </g>
    <g id="ytick_24">
     <g id="line2d_91">
      <path d="M 214.534222 397.839401 
L 360.889778 397.839401 
" clip-path="url(#p34af0230cc)" style="fill: none; stroke: #b0b0b0; stroke-opacity: 0.3; stroke-width: 0.4; stroke-linecap: square"/>
     </g>
     <g id="line2d_92">
      <g>
       <use xlink:href="#mc3e713aa82" x="214.534222" y="397.839401" style="stroke: #000000; stroke-width: 0.8"/>
      </g>
     </g>
    </g>
    <g id="ytick_25">
     <g id="line2d_93">
      <path d="M 214.534222 368.019239 
L 360.889778 368.019239 
" clip-path="url(#p34af0230cc)" style="fill: none; stroke: #b0b0b0; stroke-opacity: 0.3; stroke-width: 0.4; stroke-linecap: square"/>
     </g>
     <g id="line2d_94">
      <g>
       <use xlink:href="#mc3e713aa82" x="214.534222" y="368.019239" style="stroke: #000000; stroke-width: 0.8"/>
      </g>
     </g>
    </g>
    <g id="ytick_26">
     <g id="line2d_95">
      <path d="M 214.534222 338.199077 
L 360.889778 338.199077 
" clip-path="url(#p34af0230cc)" style="fill: none; stroke: #b0b0b0; stroke-opacity: 0.3; stroke-width: 0.4; stroke-linecap: square"/>
     </g>
     <g id="line2d_96">
      <g>
       <use xlink:href="#mc3e713aa82" x="214.534222" y="338.199077" style="stroke: #000000; stroke-width: 0.8"/>
      </g>
     </g>
    </g>
   </g>
   <g id="line2d_97">
    <path d="M 217.403939 343.189322 
L 220.273656 365.343239 
L 223.143373 397.213964 
L 226.013089 413.559228 
L 228.882806 419.409196 
L 231.752523 424.191726 
L 234.62224 429.004977 
L 237.491956 431.448954 
L 240.361673 433.953599 
L 243.23139 435.392525 
L 246.101107 436.844999 
L 248.970824 437.630221 
L 251.84054 438.610948 
L 254.710257 438.666613 
L 257.579974 438.626831 
L 260.449691 438.930508 
L 263.319407 439.231222 
L 266.189124 438.85172 
L 269.058841 439.252576 
L 271.928558 439.830484 
L 274.798275 440.042322 
L 277.667991 439.912114 
L 280.537708 439.676724 
L 283.407425 440.171376 
L 286.277142 440.590043 
L 289.146858 440.08427 
L 292.016575 440.384956 
L 294.886292 439.82088 
L 297.756009 439.228997 
L 300.625725 439.143905 
L 303.495442 440.10004 
L 306.365159 439.847216 
L 309.234876 439.471365 
L 312.104593 440.052843 
L 314.974309 440.356249 
L 317.844026 439.979547 
L 320.713743 439.207779 
L 323.58346 440.069246 
L 326.453176 440.56139 
L 329.322893 439.922503 
L 332.19261 439.998192 
L 335.062327 440.424494 
L 337.932044 440.509874 
L 340.80176 440.570606 
L 343.671477 439.658057 
L 346.541194 440.10912 
L 349.410911 440.410971 
L 352.280627 440.094538 
L 355.150344 440.401982 
L 358.020061 440.568453 
" clip-path="url(#p34af0230cc)" style="fill: none; stroke-dasharray: 5.18,2.24; stroke-dashoffset: 0; stroke: #d55e00; stroke-width: 1.4"/>
   </g>
   <g id="line2d_98">
    <path d="M 217.403939 342.979636 
L 220.273656 364.793631 
L 223.143373 396.864685 
L 226.013089 413.277191 
L 228.882806 419.162069 
L 231.752523 423.952756 
L 234.62224 428.774316 
L 237.491956 431.169736 
L 240.361673 433.649794 
L 243.23139 435.113283 
L 246.101107 436.637393 
L 248.970824 437.430972 
L 251.84054 438.441193 
L 254.710257 438.454462 
L 257.579974 438.446817 
L 260.449691 438.752798 
L 263.319407 439.083004 
L 266.189124 438.683326 
L 269.058841 439.091525 
L 271.928558 439.653921 
L 274.798275 439.911478 
L 277.667991 439.760074 
L 280.537708 439.528782 
L 283.407425 440.021308 
L 286.277142 440.453456 
L 289.146858 439.950827 
L 292.016575 440.267752 
L 294.886292 439.70966 
L 297.756009 439.129963 
L 300.625725 438.951899 
L 303.495442 439.987797 
L 306.365159 439.726638 
L 309.234876 439.387278 
L 312.104593 439.96572 
L 314.974309 440.249384 
L 317.844026 439.849562 
L 320.713743 439.118049 
L 323.58346 439.95772 
L 326.453176 440.423543 
L 329.322893 439.81499 
L 332.19261 439.852839 
L 335.062327 440.372654 
L 337.932044 440.373877 
L 340.80176 440.434324 
L 343.671477 439.591203 
L 346.541194 440.01024 
L 349.410911 440.313284 
L 352.280627 439.977778 
L 355.150344 440.318991 
L 358.020061 440.447172 
" clip-path="url(#p34af0230cc)" style="fill: none; stroke: #0072b2; stroke-width: 1.4; stroke-linecap: square"/>
   </g>
   <g id="patch_24">
    <path d="M 214.534222 445.536 
L 214.534222 338.096 
" style="fill: none; stroke: #000000; stroke-width: 0.8; stroke-linejoin: miter; stroke-linecap: square"/>
   </g>
   <g id="patch_25">
    <path d="M 214.534222 445.536 
L 360.889778 445.536 
" style="fill: none; stroke: #000000; stroke-width: 0.8; stroke-linejoin: miter; stroke-linecap: square"/>
   </g>
   <g id="PathCollection_29">
    <g clip-path="url(#p34af0230cc)">
     <use xlink:href="#mfab3d63f3f" x="266.189124" y="438.85172" style="fill: #d55e00; stroke: #d55e00"/>
    </g>
   </g>
   <g id="PathCollection_30">
    <path d="M 355.674853 442.913661 
L 360.365269 442.913661 
L 360.365269 438.223245 
L 355.674853 438.223245 
L 355.674853 442.913661 
z
" clip-path="url(#p34af0230cc)" style="fill: none; stroke: #d55e00"/>
   </g>
   <g id="PathCollection_31">
    <g clip-path="url(#p34af0230cc)">
     <use xlink:href="#m393fccbbc7" x="303.495442" y="439.987797" style="fill: #0072b2; stroke: #0072b2"/>
    </g>
   </g>
   <g id="PathCollection_32">
    <path d="M 355.674853 442.79238 
L 360.365269 442.79238 
L 360.365269 438.101964 
L 355.674853 438.101964 
L 355.674853 442.79238 
z
" clip-path="url(#p34af0230cc)" style="fill: none; stroke: #0072b2"/>
   </g>
  </g>
  <g id="axes_9">
   <g id="patch_26">
    <path d="M 378.452444 445.536 
L 524.808 445.536 
L 524.808 338.096 
L 378.452444 338.096 
z
" style="fill: #ffffff"/>
   </g>
   <g id="matplotlib.axis_17">
    <g id="xtick_25">
     <g id="line2d_99">
      <g>
       <use xlink:href="#ma9c631b0f5" x="381.322161" y="445.536" style="stroke: #000000; stroke-width: 0.8"/>
      </g>
     </g>
     <g id="text_22">
      <text style="font: 8px 'DejaVu Serif'; text-anchor: middle" x="381.322161" y="458.61475" transform="rotate(-0 381.322161 458.61475)">1</text>
     </g>
    </g>
    <g id="xtick_26">
     <g id="line2d_100">
      <g>
       <use xlink:href="#ma9c631b0f5" x="450.195364" y="445.536" style="stroke: #000000; stroke-width: 0.8"/>
      </g>
     </g>
     <g id="text_23">
      <text style="font: 8px 'DejaVu Serif'; text-anchor: middle" x="450.195364" y="458.61475" transform="rotate(-0 450.195364 458.61475)">25</text>
     </g>
    </g>
    <g id="xtick_27">
     <g id="line2d_101">
      <g>
       <use xlink:href="#ma9c631b0f5" x="521.938283" y="445.536" style="stroke: #000000; stroke-width: 0.8"/>
      </g>
     </g>
     <g id="text_24">
      <text style="font: 8px 'DejaVu Serif'; text-anchor: middle" x="521.938283" y="458.61475" transform="rotate(-0 521.938283 458.61475)">50</text>
     </g>
    </g>
    <g id="text_25">
     <text style="font: 9px 'DejaVu Serif'; text-anchor: middle" x="451.630222" y="471.117094" transform="rotate(-0 451.630222 471.117094)">Additional epoch (seed 44)</text>
    </g>
   </g>
   <g id="matplotlib.axis_18">
    <g id="ytick_27">
     <g id="line2d_102">
      <path d="M 378.452444 427.659563 
L 524.808 427.659563 
" clip-path="url(#p0689e08d1b)" style="fill: none; stroke: #b0b0b0; stroke-opacity: 0.3; stroke-width: 0.4; stroke-linecap: square"/>
     </g>
     <g id="line2d_103">
      <g>
       <use xlink:href="#mc3e713aa82" x="378.452444" y="427.659563" style="stroke: #000000; stroke-width: 0.8"/>
      </g>
     </g>
    </g>
    <g id="ytick_28">
     <g id="line2d_104">
      <path d="M 378.452444 397.839401 
L 524.808 397.839401 
" clip-path="url(#p0689e08d1b)" style="fill: none; stroke: #b0b0b0; stroke-opacity: 0.3; stroke-width: 0.4; stroke-linecap: square"/>
     </g>
     <g id="line2d_105">
      <g>
       <use xlink:href="#mc3e713aa82" x="378.452444" y="397.839401" style="stroke: #000000; stroke-width: 0.8"/>
      </g>
     </g>
    </g>
    <g id="ytick_29">
     <g id="line2d_106">
      <path d="M 378.452444 368.019239 
L 524.808 368.019239 
" clip-path="url(#p0689e08d1b)" style="fill: none; stroke: #b0b0b0; stroke-opacity: 0.3; stroke-width: 0.4; stroke-linecap: square"/>
     </g>
     <g id="line2d_107">
      <g>
       <use xlink:href="#mc3e713aa82" x="378.452444" y="368.019239" style="stroke: #000000; stroke-width: 0.8"/>
      </g>
     </g>
    </g>
    <g id="ytick_30">
     <g id="line2d_108">
      <path d="M 378.452444 338.199077 
L 524.808 338.199077 
" clip-path="url(#p0689e08d1b)" style="fill: none; stroke: #b0b0b0; stroke-opacity: 0.3; stroke-width: 0.4; stroke-linecap: square"/>
     </g>
     <g id="line2d_109">
      <g>
       <use xlink:href="#mc3e713aa82" x="378.452444" y="338.199077" style="stroke: #000000; stroke-width: 0.8"/>
      </g>
     </g>
    </g>
   </g>
   <g id="line2d_110">
    <path d="M 381.322161 343.670471 
L 384.191878 364.836919 
L 387.061595 397.832475 
L 389.931312 413.811137 
L 392.801028 418.600135 
L 395.670745 423.737476 
L 398.540462 428.404226 
L 401.410179 431.721319 
L 404.279895 433.132591 
L 407.149612 435.289706 
L 410.019329 436.86662 
L 412.889046 438.18263 
L 415.758763 438.620748 
L 418.628479 438.580312 
L 421.498196 438.667246 
L 424.367913 439.242107 
L 427.23763 438.926692 
L 430.107346 438.96187 
L 432.977063 439.57242 
L 435.84678 440.048966 
L 438.716497 439.959178 
L 441.586214 439.515094 
L 444.45593 439.764541 
L 447.325647 440.380628 
L 450.195364 440.233816 
L 453.065081 440.365669 
L 455.934797 439.747619 
L 458.804514 439.36037 
L 461.674231 438.94926 
L 464.543948 439.982275 
L 467.413664 439.932748 
L 470.283381 439.371739 
L 473.153098 439.863372 
L 476.022815 440.284506 
L 478.892532 439.891403 
L 481.762248 439.249646 
L 484.631965 439.972556 
L 487.501682 440.56311 
L 490.371399 439.869538 
L 493.241115 439.94375 
L 496.110832 440.389475 
L 498.980549 440.432215 
L 501.850266 440.558255 
L 504.719983 439.608102 
L 507.589699 440.065428 
L 510.459416 440.365526 
L 513.329133 440.048059 
L 516.19885 440.301385 
L 519.068566 440.514103 
L 521.938283 440.165616 
" clip-path="url(#p0689e08d1b)" style="fill: none; stroke-dasharray: 5.18,2.24; stroke-dashoffset: 0; stroke: #d55e00; stroke-width: 1.4"/>
   </g>
   <g id="line2d_111">
    <path d="M 381.322161 343.42858 
L 384.191878 364.397264 
L 387.061595 397.533151 
L 389.931312 413.526441 
L 392.801028 418.348144 
L 395.670745 423.509301 
L 398.540462 428.144706 
L 401.410179 431.491625 
L 404.279895 432.837869 
L 407.149612 435.066144 
L 410.019329 436.678306 
L 412.889046 438.027312 
L 415.758763 438.464071 
L 418.628479 438.368291 
L 421.498196 438.493307 
L 424.367913 439.072409 
L 427.23763 438.724399 
L 430.107346 438.801241 
L 432.977063 439.420625 
L 435.84678 439.880374 
L 438.716497 439.817965 
L 441.586214 439.407689 
L 444.45593 439.620525 
L 447.325647 440.247749 
L 450.195364 440.062967 
L 453.065081 440.238272 
L 455.934797 439.560368 
L 458.804514 439.190649 
L 461.674231 438.746972 
L 464.543948 439.832997 
L 467.413664 439.750151 
L 470.283381 439.150157 
L 473.153098 439.692153 
L 476.022815 440.154909 
L 478.892532 439.717422 
L 481.762248 439.053494 
L 484.631965 439.824433 
L 487.501682 440.376238 
L 490.371399 439.683231 
L 493.241115 439.721881 
L 496.110832 440.223853 
L 498.980549 440.265195 
L 501.850266 440.365387 
L 504.719983 439.483248 
L 507.589699 439.929435 
L 510.459416 440.231905 
L 513.329133 439.938902 
L 516.19885 440.142704 
L 519.068566 440.3044 
L 521.938283 440.029735 
" clip-path="url(#p0689e08d1b)" style="fill: none; stroke: #0072b2; stroke-width: 1.4; stroke-linecap: square"/>
   </g>
   <g id="patch_27">
    <path d="M 378.452444 445.536 
L 378.452444 338.096 
" style="fill: none; stroke: #000000; stroke-width: 0.8; stroke-linejoin: miter; stroke-linecap: square"/>
   </g>
   <g id="patch_28">
    <path d="M 378.452444 445.536 
L 524.808 445.536 
" style="fill: none; stroke: #000000; stroke-width: 0.8; stroke-linejoin: miter; stroke-linecap: square"/>
   </g>
   <g id="PathCollection_33">
    <g clip-path="url(#p0689e08d1b)">
     <use xlink:href="#mfab3d63f3f" x="395.670745" y="423.737476" style="fill: #d55e00; stroke: #d55e00"/>
    </g>
   </g>
   <g id="PathCollection_34">
    <path d="M 519.593075 442.510824 
L 524.283491 442.510824 
L 524.283491 437.820408 
L 519.593075 437.820408 
L 519.593075 442.510824 
z
" clip-path="url(#p0689e08d1b)" style="fill: none; stroke: #d55e00"/>
   </g>
   <g id="PathCollection_35">
    <g clip-path="url(#p0689e08d1b)">
     <use xlink:href="#m393fccbbc7" x="464.543948" y="439.832997" style="fill: #0072b2; stroke: #0072b2"/>
    </g>
   </g>
   <g id="PathCollection_36">
    <path d="M 519.593075 442.374943 
L 524.283491 442.374943 
L 524.283491 437.684527 
L 519.593075 437.684527 
L 519.593075 442.374943 
z
" clip-path="url(#p0689e08d1b)" style="fill: none; stroke: #0072b2"/>
   </g>
  </g>
  <g id="legend_1">
   <g id="line2d_112">
    <path d="M 138.155625 12.92675 
L 146.155625 12.92675 
L 154.155625 12.92675 
" style="fill: none; stroke-dasharray: 5.55,2.4; stroke-dashoffset: 0; stroke: #d55e00; stroke-width: 1.5"/>
   </g>
   <g id="text_26">
    <text style="font: 8px 'DejaVu Serif'; text-anchor: start" x="160.555625" y="15.72675" transform="rotate(-0 160.555625 15.72675)">Ordinary</text>
   </g>
   <g id="line2d_113">
    <path d="M 138.155625 24.783 
L 146.155625 24.783 
L 154.155625 24.783 
" style="fill: none; stroke: #0072b2; stroke-width: 1.5; stroke-linecap: square"/>
   </g>
   <g id="text_27">
    <text style="font: 8px 'DejaVu Serif'; text-anchor: start" x="160.555625" y="27.583" transform="rotate(-0 160.555625 27.583)">Dual axis</text>
   </g>
   <g id="line2d_114">
    <path d="M 213.938125 12.92675 
L 221.938125 12.92675 
L 229.938125 12.92675 
" style="fill: none; stroke-dasharray: 1.5,2.475; stroke-dashoffset: 0; stroke: #777777; stroke-width: 1.5"/>
   </g>
   <g id="text_28">
    <text style="font: 8px 'DejaVu Serif'; text-anchor: start" x="236.338125" y="15.72675" transform="rotate(-0 236.338125 15.72675)">Teacher50 reference</text>
   </g>
   <g id="line2d_115">
    <defs>
     <path id="md713355941" d="M 0 3 
C 0.795609 3 1.55874 2.683901 2.12132 2.12132 
C 2.683901 1.55874 3 0.795609 3 0 
C 3 -0.795609 2.683901 -1.55874 2.12132 -2.12132 
C 1.55874 -2.683901 0.795609 -3 0 -3 
C -0.795609 -3 -1.55874 -2.683901 -2.12132 -2.12132 
C -2.683901 -1.55874 -3 -0.795609 -3 0 
C -3 0.795609 -2.683901 1.55874 -2.12132 2.12132 
C -1.55874 2.683901 -0.795609 3 0 3 
z
" style="stroke: #000000"/>
    </defs>
    <g>
     <use xlink:href="#md713355941" x="221.938125" y="24.66925" style="stroke: #000000"/>
    </g>
   </g>
   <g id="text_29">
    <text style="font: 8px 'DejaVu Serif'; text-anchor: start" x="236.338125" y="27.46925" transform="rotate(-0 236.338125 27.46925)">mAP-selected</text>
   </g>
   <g id="line2d_116">
    <defs>
     <path id="mc87263702a" d="M -3 3 
L 3 3 
L 3 -3 
L -3 -3 
z
" style="stroke: #000000; stroke-linejoin: miter"/>
    </defs>
    <g>
     <use xlink:href="#mc87263702a" x="344.654375" y="12.92675" style="fill-opacity: 0; stroke: #000000; stroke-linejoin: miter"/>
    </g>
   </g>
   <g id="text_30">
    <text style="font: 8px 'DejaVu Serif'; text-anchor: start" x="359.054375" y="15.72675" transform="rotate(-0 359.054375 15.72675)">Epoch50</text>
   </g>
  </g>
 </g>
 <defs>
  <clipPath id="p26f4cdbfc2">
   <rect x="50.616" y="58.752" width="146.355556" height="107.44"/>
  </clipPath>
  <clipPath id="p525db483ce">
   <rect x="214.534222" y="58.752" width="146.355556" height="107.44"/>
  </clipPath>
  <clipPath id="pa37be62288">
   <rect x="378.452444" y="58.752" width="146.355556" height="107.44"/>
  </clipPath>
  <clipPath id="pbe476d9f71">
   <rect x="50.616" y="198.424" width="146.355556" height="107.44"/>
  </clipPath>
  <clipPath id="p938466e5bb">
   <rect x="214.534222" y="198.424" width="146.355556" height="107.44"/>
  </clipPath>
  <clipPath id="p614fefd6d7">
   <rect x="378.452444" y="198.424" width="146.355556" height="107.44"/>
  </clipPath>
  <clipPath id="pe4da6634b7">
   <rect x="50.616" y="338.096" width="146.355556" height="107.44"/>
  </clipPath>
  <clipPath id="p34af0230cc">
   <rect x="214.534222" y="338.096" width="146.355556" height="107.44"/>
  </clipPath>
  <clipPath id="p0689e08d1b">
   <rect x="378.452444" y="338.096" width="146.355556" height="107.44"/>
  </clipPath>
 </defs>
</svg>
